<?xml version="1.0" encoding="utf-8"?>
<!-- Generator: Adobe Illustrator 27.5.0, SVG Export Plug-In . SVG Version: 6.00 Build 0)  -->
<svg version="1.1" id="Layer_1" xmlns="http://www.w3.org/2000/svg" xmlns:xlink="http://www.w3.org/1999/xlink" x="0px" y="0px"
	 viewBox="0 0 841.89 595.28" style="enable-background:new 0 0 841.89 595.28;" xml:space="preserve">
<style type="text/css">
	.st0{clip-path:url(#SVGID_00000121963688657718088580000015590792945007655582_);}
	
		.st1{clip-path:url(#SVGID_00000128455637318338522790000002901449341894272416_);fill:url(#SVGID_00000137130258706959673820000015993274500096102540_);}
	
		.st2{clip-path:url(#SVGID_00000040565425571947961320000005315691459591575691_);fill:url(#SVGID_00000117661090387087957640000008615845281130211213_);}
</style>
<g>
	<g>
		<defs>
			<rect id="SVGID_1_" width="841.89" height="595.28"/>
		</defs>
		<clipPath id="SVGID_00000165221274806785547940000017952960369062940091_">
			<use xlink:href="#SVGID_1_"  style="overflow:visible;"/>
		</clipPath>
		<g style="clip-path:url(#SVGID_00000165221274806785547940000017952960369062940091_);">
			<defs>
				<path id="SVGID_00000008857111656115955510000016925534204107733888_" d="M431.85,276.81c-3.09,1.68-3.34,5.43,0.37,6.9
					c0.48,0.1,0.95,0.21,1.43,0.32c2.97,0.3,5.05-1.2,5.79-2.15c1.44-1.83,0.92-4.51-2.43-5.64c-0.6-0.17-1.22-0.26-1.85-0.26
					C434.01,275.99,432.85,276.27,431.85,276.81 M394.46,277.55c1.31,3.43,6.05,4.38,7.36,1.47c0.64-1.42,0.2-4.07-2.76-5.5
					c0,0,0,0,0,0c0,0,0,0,0,0c0,0,0,0-0.01,0c0,0,0,0,0,0c0,0,0,0,0,0c0,0,0,0,0,0c0,0,0,0,0,0c0,0,0,0,0,0
					c-0.7-0.26-1.32-0.38-1.88-0.38C394.69,273.13,393.67,275.47,394.46,277.55 M420.67,272.82c-3.02,1.4-3.76,5.67,0.82,7.42
					c0,0,0,0,0,0l0,0c0,0,0,0,0,0h0c0,0,0,0,0,0l0,0c0,0,0,0,0,0l0,0c3.39,0.98,5.54-0.64,6.29-1.75c0.99-1.48,1.12-4.37-2.72-5.84
					l0,0h0c0,0,0,0,0,0c0,0,0,0,0,0l0,0c0,0,0,0,0,0l0,0c0,0,0,0,0,0c-0.36-0.1-1.13-0.33-2.09-0.33
					C422.27,272.33,421.47,272.45,420.67,272.82 M447.18,275.34c0.94,4.26,7.87,4.27,10.44,0.01c1.67-2.76,0.46-5.74-2.64-6.51
					c-0.44-0.08-0.88-0.12-1.3-0.12C449.63,268.72,446.5,272.24,447.18,275.34 M407.01,272.6c1.02,4.11,6.98,5.38,8.99,1.91
					c0.88-1.53,0.56-4.5-2.92-6.05c0,0-0.01,0-0.01,0c0,0-0.01,0-0.01,0c0,0-0.01,0-0.01,0c0,0-0.01,0-0.01,0c0,0,0,0-0.01,0
					c0,0-0.01,0-0.01,0c0,0-0.01,0-0.01,0c0,0-0.01,0-0.01,0c-0.73-0.24-1.43-0.35-2.06-0.35
					C408.15,268.08,406.42,270.21,407.01,272.6 M434.62,271.02c0.56,4.42,7.63,5.2,10.36,1.14c1.44-2.14,0.99-5.09-2.67-6.34
					c-0.64-0.18-1.27-0.27-1.88-0.27C436.97,265.55,434.27,268.29,434.62,271.02 M396.39,268.44c1.46,3.82,6.74,4.88,8.19,1.64
					c0.71-1.58,0.23-4.53-3.07-6.12c0,0,0,0,0,0l0,0c0,0,0,0-0.01,0c0,0,0,0-0.01,0c0,0,0,0,0,0c0,0,0,0-0.01,0c0,0,0,0,0,0
					c0,0,0,0,0,0c-0.77-0.29-1.47-0.42-2.09-0.42C396.64,263.52,395.51,266.12,396.39,268.44 M486.88,270.36
					c0.08,3.46,4.8,2.72,7.88-1.24c1.58-2.03,2.74-5.45,0.22-6.37c-0.21-0.04-0.43-0.06-0.65-0.06
					C490.91,262.7,486.8,267.25,486.88,270.36 M496.17,269.61c-0.9,3.5,2.7,3.07,6-0.72c1.69-1.94,3.47-5.31,1.92-6.41
					c-0.2-0.08-0.42-0.11-0.65-0.11C500.97,262.37,496.95,266.54,496.17,269.61 M504.37,267.77c-0.74,2.88,2.22,2.53,4.94-0.59
					c1.39-1.6,2.86-4.37,1.58-5.28c-0.17-0.06-0.34-0.09-0.53-0.09C508.32,261.81,505.01,265.24,504.37,267.77 M476.59,269.55
					c0.68,3.65,6.58,2.57,9.41-1.74c1.33-2.02,2.12-5.45-1.42-6.08c0,0,0,0,0,0c0,0,0,0-0.01,0c0,0,0,0,0,0s0,0,0,0c0,0,0,0,0,0
					c0,0,0,0,0,0c0,0,0,0,0,0c0,0,0,0,0,0c-0.11-0.01-0.22-0.01-0.34-0.01C479.65,261.72,476.04,266.63,476.59,269.55 M422.57,266.9
					c0.7,4.5,7.51,5.66,9.99,1.69c1.55-2.47,0.21-5.56-2.85-6.61c-0.7-0.2-1.38-0.3-2.02-0.3
					C424.38,261.69,422.15,264.21,422.57,266.9 M511.04,265.93c-1.22,2.68,0.83,2.13,3.43-0.93c1.33-1.57,3-4.22,2.38-4.94
					c-0.07-0.03-0.15-0.05-0.23-0.05C515.32,260.01,512.13,263.52,511.04,265.93 M464.99,267.05c0.66,4.29,7.21,3.97,10.16-0.5
					c1.42-2.15,1.73-5.59-2.03-6.51c-0.28-0.04-0.57-0.05-0.85-0.05C468.09,259.99,464.5,263.88,464.99,267.05 M452.67,264.2
					c0.97,4.38,8.09,4.39,10.73,0.02c1.71-2.84,0.47-5.9-2.71-6.69c-0.46-0.08-0.9-0.12-1.34-0.12
					C455.19,257.39,451.97,261.01,452.67,264.2 M516.22,263.55c-1.46,2.55-0.17,1.58,2.15-1.62c1.19-1.64,2.89-4.27,2.76-4.72
					c-0.01,0-0.02-0.01-0.03-0.01C520.57,257.21,517.59,261.16,516.22,263.55 M413,257.53c-3.62,1.5-3.74,6.67,0.85,8.65
					c0,0,0,0,0.01,0c0,0,0,0,0,0c0,0,0,0,0,0c0,0,0,0,0,0c0,0,0,0,0.01,0c0,0,0,0,0,0l0,0c0,0,0,0,0,0c3.42,1.12,5.44-0.73,6.1-1.99
					c0.86-1.67,0.81-4.95-3.01-6.64c0,0,0,0,0,0c0,0,0,0-0.01,0c0,0,0,0,0,0c0,0,0,0-0.01,0c0,0,0,0,0,0c0,0,0,0,0,0c0,0,0,0,0,0
					c0,0,0,0-0.01,0c-0.41-0.14-1.16-0.38-2.08-0.38C414.29,257.16,413.66,257.26,413,257.53 M442.56,254.76
					c-3.48,2.01-4.48,7.38,0.66,9.13h0c0,0,0,0,0,0l0,0c0,0,0,0,0,0c0,0,0,0,0,0l0,0c0,0,0,0,0,0h0c3.8,0.89,6.24-1.34,7.08-2.79
					c1.12-1.93,1.31-5.52-2.91-6.97c0,0,0,0,0,0l0,0l0,0c0,0,0,0,0,0c0,0,0,0,0,0c0,0,0,0,0,0c0,0,0,0,0,0s0,0,0,0
					c-0.31-0.07-0.92-0.21-1.71-0.21C444.8,253.92,443.7,254.1,442.56,254.76 M399.02,257.87c1.45,4.33,7.13,5.36,8.81,1.6
					c1.08-2.41-0.38-5.56-3.12-6.74c-0.71-0.27-1.39-0.39-2.01-0.39C399.78,252.34,398.07,255.04,399.02,257.87 M427.19,256.34
					c1.4,4.92,8.2,4.81,10.27,0.89c1.03-1.96,0.78-5.56-3.04-7.06c-0.63-0.21-1.27-0.31-1.88-0.31
					C429.09,249.86,426.22,252.95,427.19,256.34 M493.43,258.72c0.91,3.45,5.86,1.69,8.29-2.95c1.24-2.38,1.7-6.06-1.26-6.44
					C496.48,249.44,492.56,255.41,493.43,258.72 M502.8,259.36c0.86,2.68,5,0.38,7.25-4.04c1.26-2.46,1.89-5.97-0.65-6.05
					C505.71,249.78,501.86,256.41,502.8,259.36 M486.35,249.88c-3.99,2.95-5.07,9-0.77,9.8h0c0,0,0,0,0,0c0,0,0,0,0,0l0,0
					c0,0,0,0,0,0c0,0,0,0,0,0h0l0,0c3.3,0.16,5.75-2.81,6.58-4.4c1.21-2.31,1.46-6.04-1.84-6.71c0,0,0,0-0.01,0c0,0-0.01,0-0.01,0
					c0,0-0.01,0-0.01,0c0,0-0.01,0-0.01,0c0,0,0,0-0.01,0l-0.01,0c0,0-0.01,0-0.01,0c0,0-0.01,0-0.01,0c-0.1,0-0.23-0.01-0.38-0.01
					C489.18,248.55,487.94,248.7,486.35,249.88 M516.75,248.36L516.75,248.36L516.75,248.36L516.75,248.36L516.75,248.36
					L516.75,248.36L516.75,248.36L516.75,248.36c-0.37,0.11-1.46,0.43-3.12,2.54c-2.89,3.65-4.43,8.96-1.95,8.7h0l0,0c0,0,0,0,0,0h0
					c0,0,0,0,0,0l0,0h0h0c2.12-0.62,4.24-3.9,5.07-5.56c1.2-2.41,2.01-5.68,0.16-5.68C516.87,248.35,516.81,248.35,516.75,248.36
					 M524.38,252.13c0.67-1.18,1.34-2.55,2-3.98c0.08-0.29,0.16-0.58,0.23-0.86C525.47,249.75,524.43,252,524.38,252.13
					 M387.86,252.93c1.66,3.93,6.59,4.74,7.86,1.29c0.89-2.42-0.5-5.5-3.05-6.72c-0.13-0.06-0.31-0.14-0.45-0.19
					c-0.55-0.2-1.07-0.3-1.54-0.3C387.97,247.01,386.64,250.05,387.86,252.93 M474.42,247.87c-4.26,2.7-5.12,8.81-0.28,9.98
					c0,0,0,0,0,0c0,0,0,0,0,0h0c0,0,0,0,0,0h0c0,0,0,0,0,0h0c0,0,0,0,0,0c3.67,0.43,6.09-2.34,6.95-4.05
					c1.08-2.17,1.37-5.96-2.47-6.89c0,0,0,0-0.01,0c0,0,0,0,0,0c0,0,0,0,0,0c0,0,0,0,0,0c0,0,0,0,0,0c0,0,0,0,0,0c0,0,0,0-0.01,0
					c0,0,0,0,0,0c-0.21-0.02-0.5-0.06-0.87-0.06C476.93,246.84,475.77,247.02,474.42,247.87 M522.71,246.61
					c-2.53,1.33-6.43,9.19-5.85,10.97c0.44,1.36,3.18-1.62,5.14-5.59c1.15-2.34,2.13-5.42,0.95-5.42
					C522.88,246.58,522.8,246.59,522.71,246.61 M417.17,245.65c-3.46,1.51-4.35,7.24,0.66,9.43c0,0,0,0,0.01,0c0,0,0,0,0,0
					c0,0,0,0,0.01,0c0,0,0,0,0,0c0,0,0,0,0.01,0c0,0,0,0,0,0c0,0,0,0,0.01,0c0,0,0,0,0,0c3.54,1.14,5.65-0.95,6.35-2.36
					c0.9-1.84,0.88-5.4-3.04-7.13c-0.4-0.13-1.12-0.37-2.03-0.37C418.55,245.24,417.88,245.34,417.17,245.65 M461.66,245.02
					c-3.94,2.18-5.31,8.52,0.09,10.11c0,0,0,0,0,0c0,0,0,0,0,0c0,0,0,0,0,0c0,0,0,0,0,0l0,0c0,0,0,0,0,0c0,0,0,0,0,0c0,0,0,0,0,0
					c3.85,0.7,6.3-1.89,7.14-3.53c1.09-2.14,1.28-5.99-2.86-7.25c-0.3-0.06-0.77-0.14-1.37-0.14
					C463.87,244.21,462.82,244.38,461.66,245.02 M526.96,244.13c-1.9,1.8-5.85,10.26-5.51,11.24c0.24,0.68,2.37-2.55,4.14-6.29
					c0.56-1.18,1.02-2.27,1.33-3.14c0.14-0.66,0.25-1.3,0.32-1.92c-0.01,0-0.03-0.01-0.04-0.01
					C527.12,244.02,527.03,244.08,526.96,244.13 M445.01,247.88c1.18,4.91,8.1,5.24,10.57,0.5c1.56-2.98,0.11-6.56-3.03-7.51
					c-0.51-0.12-1.01-0.17-1.49-0.17C447.08,240.7,444.19,244.46,445.01,247.88 M404.75,240.58c-3.59,1.59-3.73,7.18,0.79,9.39l0,0
					c0,0,0,0,0,0c0,0,0,0,0,0c0,0,0,0,0,0l0,0c0,0,0,0,0,0l0,0c0,0,0,0,0,0c3.31,1.23,5.27-0.76,5.91-2.12
					c1.06-2.26,0.23-5.67-2.98-7.24c0,0,0,0,0,0l0,0c0,0,0,0,0,0l0,0c0,0,0,0,0,0s0,0,0,0c0,0,0,0,0,0s0,0,0,0
					c-0.38-0.14-1.08-0.4-1.96-0.4C405.98,240.21,405.38,240.3,404.75,240.58 M432.11,243.93c1.37,4.51,7.89,4.92,10.11,0.65
					c1.6-3.08,0.25-6.59-2.94-7.68c-0.64-0.18-1.26-0.27-1.83-0.27C433.41,236.64,431.14,240.75,432.11,243.93 M504.92,235.36
					C504.91,235.36,504.91,235.36,504.92,235.36L504.92,235.36L504.92,235.36c-0.51,0.02-1.56,0.06-2.91,1.22
					c-3.32,2.86-4.97,10.04-0.74,10.53c0,0,0,0,0,0h0h0h0c0,0,0,0,0,0h0l0,0h0c2.88-0.11,4.83-3.3,5.53-5.18
					C507.7,239.59,507.96,235.71,504.92,235.36L504.92,235.36L504.92,235.36L504.92,235.36L504.92,235.36L504.92,235.36z
					 M513.86,235.25C513.86,235.25,513.86,235.25,513.86,235.25C513.85,235.25,513.85,235.25,513.86,235.25c-0.01,0-0.01,0-0.01,0
					c0,0,0,0-0.01,0c0,0,0,0,0,0c0,0,0,0-0.01,0c0,0,0,0,0,0c-3.51,0.56-6.56,7.54-5.35,10.63c1.12,2.88,5.02,0.37,6.72-4.32
					C516.08,239.17,516.49,235.33,513.86,235.25C513.86,235.25,513.86,235.25,513.86,235.25 M392.92,234.89
					c-3.55,1.17-3.82,7.11,0.54,9.46l0,0c0,0,0,0,0,0l0,0c0,0,0,0,0,0c0,0,0,0,0,0c0,0,0,0,0,0l0,0c0,0,0,0,0,0
					c3.12,1.29,4.88-0.71,5.42-2.09c0.74-1.89,0.35-5.34-2.87-7.1c0,0,0,0,0,0c0,0,0,0-0.01,0c0,0,0,0,0,0c0,0,0,0,0,0c0,0,0,0,0,0
					c0,0,0,0,0,0c0,0,0,0,0,0c0,0,0,0-0.01,0c-0.39-0.16-1.07-0.45-1.91-0.45C393.73,234.7,393.33,234.76,392.92,234.89
					 M488.51,244.12c1.45,3.86,6.71,2.31,8.66-2.55c1.38-3.44,0.32-6.64-2.3-6.99c-0.09-0.01-0.18-0.01-0.26-0.01
					C490.08,234.58,487.25,240.77,488.51,244.12 M476.42,241.61c1.5,4.59,7.54,3.63,9.64-1.53c1-2.46,0.79-6.32-2.82-7.21
					c0,0,0,0-0.01,0c0,0-0.01,0-0.01,0c0,0-0.01,0-0.01,0c0,0,0,0-0.01,0c0,0,0,0-0.01,0c0,0-0.01,0-0.01,0c0,0,0,0-0.01,0
					c0,0,0,0-0.01,0c-0.2-0.02-0.41-0.03-0.6-0.03C478.27,232.83,475.2,237.9,476.42,241.61 M419.07,239.09
					c1.59,4.66,7.71,5.08,9.77,0.67c1-2.15,0.74-5.92-2.99-7.58c-0.63-0.2-1.25-0.3-1.83-0.3
					C420.33,231.88,417.9,235.68,419.07,239.09 M463.62,238.62c1.64,4.66,8.15,4.12,10.26-0.85c1.37-3.24-0.12-6.73-3.19-7.48
					c-0.38-0.07-0.75-0.1-1.11-0.1C465.23,230.2,462.31,234.89,463.62,238.62 M379.72,235.73c1.68,3.89,6.07,4.39,7.33,0.83
					c0.62-1.74,0.43-5.19-2.69-7.04c0,0-0.01,0-0.01,0l-0.01,0l-0.01,0c0,0,0,0-0.01,0c0,0,0,0-0.01,0c0,0,0,0-0.01,0
					c0,0-0.01,0-0.01,0c0,0-0.01,0-0.01,0c-0.12-0.05-0.29-0.14-0.41-0.19c-0.47-0.18-0.92-0.27-1.34-0.27
					C379.92,229.04,378.26,232.35,379.72,235.73 M409.55,227.03c-3.61,1.27-4.95,7.59-0.01,10.07c0,0,0.01,0,0.01,0
					c0,0,0.01,0,0.01,0c0,0,0,0,0.01,0c0,0,0,0,0.01,0c0,0,0,0,0.01,0c0,0,0.01,0,0.01,0c0,0,0.01,0,0.01,0c0,0,0,0,0.01,0
					c4.2,1.56,5.94-2.01,6.13-2.42c1.28-2.85,0-6.3-2.79-7.52c-0.4-0.15-1.09-0.4-1.95-0.4
					C410.55,226.79,410.07,226.85,409.55,227.03 M453.05,227.45c-3.69,2.15-4.74,8.76,0.51,10.58c0,0,0,0,0,0h0c0,0,0,0,0,0l0,0h0
					c0,0,0,0,0,0c0,0,0,0,0,0c0,0,0,0,0,0c3.83,0.89,6.12-1.83,6.86-3.57c0.96-2.26,0.91-6.14-3.18-7.56
					c-0.36-0.1-0.87-0.21-1.48-0.21C454.99,226.7,454.04,226.87,453.05,227.45 M437.09,230.34c1.5,4.8,7.86,4.96,10.01,0.26
					c1.38-3.02-0.07-6.7-3.04-7.73c-0.55-0.15-1.08-0.22-1.58-0.22C438.59,222.65,435.97,226.75,437.09,230.34 M397.09,221.41
					c-3.78,1.35-4.4,7.51,0.02,9.93c0,0,0,0,0.01,0c0,0,0,0,0.01,0c0,0,0,0,0.01,0c0,0,0,0,0.01,0c0,0,0.01,0,0.01,0c0,0,0,0,0.01,0
					c0,0,0,0,0.01,0c0,0,0.01,0,0.01,0c3.13,1.25,5.08-0.95,5.67-2.28c1.04-2.35,0.35-5.89-2.59-7.5c0,0,0,0-0.01,0
					c0,0-0.01,0-0.01,0c0,0,0,0-0.01,0c0,0,0,0-0.01,0c0,0,0,0-0.01,0c0,0,0,0-0.01,0c0,0,0,0-0.01,0c0,0,0,0-0.01,0
					c-0.36-0.14-0.98-0.39-1.77-0.39C398.03,221.18,397.58,221.24,397.09,221.41 M481.2,227.43c1.97,3.95,7.31,2.69,8.79-2.08
					c0.73-2.36,0.51-6.19-3.1-7.07l-0.01,0c0,0,0,0,0,0c0,0,0,0-0.01,0c0,0,0,0,0,0c0,0,0,0-0.01,0c0,0,0,0,0,0c0,0,0,0,0,0
					c0,0,0,0-0.01,0c-0.21-0.02-0.42-0.04-0.63-0.04C481.67,218.23,479.52,224.05,481.2,227.43 M423.9,225.45
					c1.46,4.68,7.56,4.98,9.61,0.47c0.93-2.06,0.99-5.96-2.83-7.68c-0.66-0.22-1.28-0.32-1.87-0.32
					C424.98,217.93,422.88,222.19,423.9,225.45 M468.31,223.97c1.71,4.58,7.95,4.03,9.67-0.84c0.78-2.21,0.58-6.16-3.28-7.36
					c0,0-0.01,0-0.01,0l-0.01,0c0,0,0,0-0.01,0l-0.01,0c0,0-0.01,0-0.01,0l-0.01,0c0,0,0,0-0.01,0l-0.01,0
					c-0.37-0.07-0.73-0.1-1.07-0.1C469.27,215.65,467.06,220.63,468.31,223.97 M383.14,222.46c1.53,4.05,6.07,4.45,7.6,0.67
					c0.79-1.95,0.58-5.48-2.35-7.26c-0.12-0.06-0.29-0.14-0.41-0.19c-0.45-0.17-0.89-0.26-1.31-0.26
					C383.87,215.42,381.83,218.98,383.14,222.46 M411.27,220.01c1.32,4.7,7.03,5.26,9.13,0.89c1.04-2.16,0.91-5.98-2.61-7.73
					c-0.63-0.23-1.23-0.33-1.81-0.33C412.58,212.83,410.3,216.54,411.27,220.01 M458.03,212.74c-4.16,2.07-4.66,8.91,0.33,10.67
					c0,0,0,0,0,0c0,0,0,0,0,0c0,0,0,0,0,0h0c0,0,0,0,0,0c0,0,0,0,0,0l0,0h0c3.7,0.81,5.83-2.01,6.44-3.61
					c0.85-2.24,0.41-6.14-3.26-7.44c0,0,0,0,0,0c0,0,0,0-0.01,0c0,0,0,0,0,0c0,0,0,0,0,0c0,0,0,0,0,0l-0.01,0h0c0,0,0,0-0.01,0
					c-0.29-0.06-0.73-0.16-1.28-0.16C459.63,212.2,458.88,212.33,458.03,212.74 M375.2,209.39c-3.53,0.76-4.97,7.19-1.22,9.75
					c0,0,0,0,0,0h0c0,0,0,0,0,0c0,0,0,0,0,0c0,0,0,0,0,0c0,0,0,0,0,0c0,0,0,0,0,0c0,0,0,0,0,0c2.59,1.33,4.4-0.74,5.06-2.17
					c1.22-2.65,0.49-5.95-1.6-7.2c-0.37-0.19-0.89-0.46-1.61-0.46C375.64,209.32,375.43,209.34,375.2,209.39 M445.21,208.63
					c-3.82,1.64-5.24,8.36,0,10.52c0,0,0.01,0,0.01,0c0,0,0.01,0,0.01,0c0,0,0.01,0,0.01,0c0,0,0.01,0,0.01,0c0,0,0,0,0.01,0
					c0,0,0.01,0,0.01,0c0,0,0.01,0,0.01,0c0,0,0.01,0,0.01,0c3.56,0.99,5.67-1.51,6.36-3.14c1.29-3.07-0.08-6.52-2.99-7.54
					c-0.34-0.1-0.89-0.25-1.57-0.25C446.52,208.24,445.89,208.34,445.21,208.63 M402.01,207.48c-3.44,1.2-4.97,7.62-0.42,10.1
					c0,0,0,0,0,0c0,0,0,0,0,0l0,0c0,0,0,0,0,0l0,0c0,0,0,0,0,0l0,0c0,0,0,0,0,0c3.82,1.55,5.6-2,5.79-2.41
					c0.9-1.93,1.07-5.67-2.29-7.5c0,0,0,0,0,0c0,0,0,0,0,0s0,0,0,0c0,0,0,0,0,0l0,0c0,0,0,0,0,0c0,0,0,0,0,0c0,0,0,0,0,0
					c-0.36-0.15-1-0.41-1.8-0.41C402.9,207.26,402.47,207.32,402.01,207.48 M432.2,203.96c-4.05,1.63-4.87,8.16-0.23,10.29
					c0,0,0,0,0.01,0c0,0,0,0,0.01,0c0,0,0,0,0.01,0c0,0,0.01,0,0.01,0l0.01,0c0,0,0,0,0.01,0c0,0,0.01,0,0.01,0c0,0,0,0,0.01,0
					c3.47,1.11,5.62-1.43,6.28-2.92c0.93-2.13,0.71-5.84-2.71-7.42c0,0-0.01,0-0.01,0c0,0,0,0-0.01,0c0,0-0.01,0-0.01,0
					c0,0-0.01,0-0.01,0c0,0,0,0-0.01,0c0,0,0,0-0.01,0c0,0-0.01,0-0.01,0c0,0-0.01,0-0.01,0c-0.34-0.11-0.9-0.29-1.63-0.29
					C433.42,203.62,432.84,203.71,432.2,203.96 M387.58,208.61c1.39,4.49,6.07,4.23,7.75,0.59c1.2-2.62,0.25-6.11-2.01-7.32
					c-0.61-0.28-1.2-0.4-1.76-0.4C388.55,201.47,386.53,205.2,387.58,208.61 M472.41,209.93c2.11,4.05,7.41,3.19,8.73-1.41
					c0.67-2.33,0.05-6.08-3.43-7.13c-0.34-0.08-0.67-0.12-0.99-0.12C473.06,201.27,470.42,206.1,472.41,209.93 M419.76,198.92
					c-3.98,1.48-4.91,7.83-0.43,10.05l0,0l0,0c0,0,0,0,0,0l0,0c0,0,0,0,0,0c0,0,0,0,0,0c0,0,0,0,0,0l0,0
					c3.29,1.17,5.36-1.12,6.07-2.65c0.89-1.93,1.02-5.63-2.42-7.33l0,0c0,0,0,0,0,0c0,0,0,0,0,0l0,0h0l0,0l0,0l0,0
					c-0.36-0.13-0.96-0.34-1.73-0.34C420.81,198.64,420.31,198.72,419.76,198.92 M459.54,206.28c1.9,3.99,7.33,3.48,8.8-0.83
					c0.72-2.11,0.49-5.95-3.18-7.23c-0.43-0.1-0.85-0.15-1.25-0.15C459.86,198.07,457.98,203.03,459.54,206.28 M379.85,195.47
					c-3.46,0.74-4.88,7.05-1.19,9.55c0,0,0,0,0,0l0,0c0,0,0,0,0,0c0,0,0,0,0,0c0,0,0,0,0,0c0,0,0,0,0,0c0,0,0,0,0,0s0,0,0,0
					c2.54,1.3,4.31-0.72,4.96-2.12c1.2-2.6,0.48-5.83-1.57-7.06c-0.36-0.19-0.88-0.45-1.58-0.45
					C380.28,195.4,380.07,195.42,379.85,195.47 M449.62,194.6c-3.91,1.77-4.52,8.26,0.09,10.18c0,0,0,0,0,0c0,0,0,0,0.01,0
					c0,0,0,0,0,0c0,0,0,0,0.01,0c0,0,0,0,0,0c0,0,0,0,0.01,0c0,0,0,0,0,0c0,0,0,0,0.01,0c3.34,0.92,5.34-1.61,5.94-3.07
					c0.86-2.11,0.54-5.89-2.86-7.29c0,0,0,0-0.01,0c0,0-0.01,0-0.01,0c0,0,0,0-0.01,0c0,0-0.01,0-0.01,0c0,0-0.01,0-0.01,0
					c0,0,0,0-0.01,0c0,0,0,0-0.01,0c0,0-0.01,0-0.01,0c-0.3-0.08-0.77-0.21-1.36-0.21C450.9,194.2,450.3,194.3,449.62,194.6
					 M404.44,200.29c1.29,4.08,6.27,4.39,8.2,0.5c1.33-2.69,0.39-6.07-2.02-7.23c-0.61-0.25-1.2-0.36-1.76-0.36
					C405.63,193.19,403.39,196.93,404.44,200.29 M437.1,190.13c-3.87,1.62-4.64,7.89-0.2,9.88c0,0,0,0,0,0l0,0c0,0,0,0,0,0
					c0,0,0,0,0,0l0,0c0,0,0,0,0,0c0,0,0,0,0,0c0,0,0,0,0,0c3.28,1.03,5.25-1.31,5.9-2.85c0.82-1.93,0.84-5.57-2.56-7.09l0,0
					c0,0,0,0,0,0s0,0,0,0c0,0,0,0,0,0s0,0,0,0l0,0c0,0,0,0,0,0l0,0c-0.32-0.1-0.85-0.27-1.52-0.27
					C438.24,189.8,437.7,189.88,437.1,190.13 M369.91,189.69c-3.11,0.67-4.38,6.33-1.07,8.58c0,0,0,0,0,0l0,0c0,0,0,0,0,0
					c0,0,0,0,0,0l0,0c0,0,0,0,0,0c0,0,0,0,0,0l0,0c2.28,1.17,3.88-0.65,4.46-1.91c1.08-2.34,0.43-5.24-1.41-6.34
					c-0.33-0.17-0.79-0.4-1.42-0.4C370.3,189.63,370.11,189.65,369.91,189.69 M396.22,187.76c-3.24,1.08-5.01,6.9-0.98,9.32
					c0,0,0,0,0,0c0,0,0,0,0,0h0c0,0,0,0,0,0l0,0c0,0,0,0,0,0c0,0,0,0,0,0c3.38,1.51,5.2-1.79,5.39-2.17
					c0.94-1.83,1.28-5.18-1.61-6.93c-0.34-0.15-0.93-0.42-1.7-0.42C396.99,187.57,396.62,187.62,396.22,187.76 M425.2,185.27
					c-3.82,1.4-4.88,7.46-0.69,9.59c0,0,0,0,0.01,0c0,0,0,0,0,0c0,0,0,0,0.01,0c0,0,0,0,0,0c0,0,0,0,0,0c0,0,0,0,0,0c0,0,0,0,0.01,0
					l0,0c3.1,1.13,5.12-1.06,5.82-2.54c0.95-1.99,0.92-5.49-2.15-7.01c-0.55-0.24-1.08-0.32-1.55-0.32
					C426.05,185.01,425.53,185.15,425.2,185.27 M463.36,191.66c2.02,4.12,6.9,2.9,8-0.97c0.7-2.49-0.29-5.8-3.12-6.81
					c0,0-0.01,0-0.01,0c0,0-0.01,0-0.01,0c0,0,0,0-0.01,0l-0.01,0c0,0,0,0-0.01,0c0,0-0.01,0-0.01,0c0,0-0.01,0-0.01,0
					c0,0-0.01,0-0.01,0c-0.32-0.07-0.62-0.1-0.92-0.1C463.68,183.76,461.71,188.31,463.36,191.66 M382.35,187.98
					c0.86,4.07,5.05,4.01,6.85,0.81c0.99-1.75,1.3-5.13-1.16-6.81c-0.51-0.26-1.04-0.38-1.55-0.38
					C383.91,181.61,381.65,184.66,382.35,187.98 M451.36,187.68c1.51,3.5,6.45,3.79,7.96-0.5c0.68-1.93,0.55-5.48-2.7-6.78
					c-0.43-0.12-0.83-0.17-1.22-0.17C451.89,180.23,450.09,184.73,451.36,187.68 M413.43,180c-3.66,1.27-4.89,7.07-1,9.21l0,0
					c0,0,0,0,0,0c0,0,0,0,0,0l0,0c0,0,0,0,0,0l0,0c0,0,0,0,0,0c0,0,0,0,0,0c2.9,1.15,4.89-0.92,5.6-2.32
					c0.9-1.75,1.23-5.13-1.72-6.75c0,0,0,0,0,0c0,0,0,0-0.01,0c0,0,0,0,0,0c0,0,0,0-0.01,0c0,0,0,0,0,0c0,0,0,0-0.01,0c0,0,0,0,0,0
					c0,0,0,0-0.01,0c-0.32-0.13-0.88-0.35-1.61-0.35C414.32,179.79,413.89,179.84,413.43,180 M439.33,183.18
					c1.48,3.77,6.35,3.57,7.9-0.31c0.78-1.96,0.57-5.3-2.34-6.61c-0.46-0.14-0.9-0.21-1.33-0.21
					C440.28,176.05,438.08,180.01,439.33,183.18 M372.88,182.08c0.77,3.32,4.24,3.54,6,0.38c1.29-2.32,0.96-5.24-0.72-6.39
					c-0.48-0.28-0.96-0.4-1.43-0.4C374.26,175.67,372.2,179.14,372.88,182.08 M399.23,180.73c0.88,3.8,5.32,4.12,7.32,0.52
					c0.98-1.77,1.24-4.96-1.28-6.49c0,0,0,0,0,0c0,0,0,0,0,0c0,0,0,0,0,0c0,0,0,0,0,0c0,0,0,0,0,0c0,0,0,0,0,0c0,0,0,0,0,0
					c0,0,0,0-0.01,0c-0.55-0.25-1.1-0.36-1.62-0.36C400.76,174.38,398.52,177.7,399.23,180.73 M427.81,178.29
					c1.21,3.68,5.93,3.67,7.65-0.01c0.81-1.73,1.01-5.01-1.88-6.44l0,0c0,0-0.01,0-0.01,0c0,0,0,0-0.01,0c0,0,0,0-0.01,0l-0.01,0
					c0,0,0,0-0.01,0c0,0,0,0-0.01,0l-0.01,0c-0.48-0.16-0.95-0.24-1.4-0.24C429.01,171.58,426.79,175.22,427.81,178.29
					 M466.55,177.29c1.54,3.63,5.97,3.24,7.18-0.63c0.8-2.56-0.41-5.54-2.54-6.26c-0.31-0.08-0.62-0.12-0.92-0.12
					C467.36,170.27,465.17,174.02,466.55,177.29 M367.77,169.55c-2.81,0.22-5.01,5.82-2.41,8.1c0,0,0,0,0,0s0,0,0,0c0,0,0,0,0,0
					c0,0,0,0,0,0c0,0,0,0,0,0c0,0,0,0,0,0c0,0,0,0,0,0c0,0,0,0,0,0c2.21,1.4,3.87-1.41,4.06-1.74c0.86-1.54,1.5-4.4-0.29-5.97
					c-0.38-0.28-0.79-0.42-1.23-0.42C367.88,169.54,367.82,169.54,367.77,169.55 M392.55,168.73c-3.05,0.58-5.61,6.01-2.12,8.37h0
					c0,0,0,0,0,0c0,0,0,0,0,0l0,0c0,0,0,0,0,0c0,0,0,0,0,0l0,0l0,0c2.88,1.45,4.78-1.5,4.98-1.84c0.94-1.55,1.56-4.6-0.79-6.19
					c0,0,0,0,0,0c0,0,0,0,0,0c0,0,0,0,0,0l0,0l0,0l0,0c0,0,0,0,0,0c0,0,0,0,0,0c-0.33-0.17-0.8-0.4-1.47-0.4
					C392.97,168.67,392.77,168.69,392.55,168.73 M455.35,173.88c1.54,3.63,5.97,3.25,7.18-0.62c0.8-2.56-0.41-5.54-2.54-6.26
					c-0.31-0.08-0.62-0.12-0.92-0.12C456.15,166.87,453.96,170.62,455.35,173.88 M416.5,172.89c0.89,3.58,5.39,3.81,7.3,0.36
					c0.96-1.74,1.2-4.84-1.3-6.27c0,0,0,0-0.01,0l-0.01,0c0,0,0,0-0.01,0c0,0,0,0-0.01,0c0,0,0,0-0.01,0c0,0,0,0-0.01,0
					c0,0,0,0-0.01,0c0,0-0.01,0-0.01,0c-0.52-0.21-1.03-0.31-1.53-0.31C418.04,166.65,415.77,169.95,416.5,172.89 M360.26,163.8
					c-2.55,0.2-4.54,5.28-2.18,7.35c0,0,0,0,0,0c0,0,0,0,0,0c0,0,0,0,0,0c0,0,0,0,0,0l0,0c0,0,0,0,0,0c0,0,0,0,0,0c0,0,0,0,0,0
					c2.01,1.27,3.52-1.28,3.68-1.58c0.78-1.4,1.36-3.99-0.26-5.41c-0.35-0.26-0.72-0.38-1.11-0.38
					C360.36,163.8,360.31,163.8,360.26,163.8 M444.14,169.69c1.17,3.22,5.53,3.58,7.08-0.3c0.68-1.71,0.74-4.88-2.02-6.12
					c0,0,0,0-0.01,0s0,0-0.01,0c0,0,0,0,0,0c0,0-0.01,0-0.01,0c0,0,0,0-0.01,0c0,0,0,0-0.01,0c0,0,0,0-0.01,0c0,0,0,0-0.01,0
					c-0.39-0.12-0.76-0.17-1.12-0.17C444.98,163.08,443.18,167.05,444.14,169.69 M383.33,162.98c-3.16,0.57-5.3,5.72-2.51,7.92
					c0,0,0,0,0,0c0,0,0,0,0,0c0,0,0,0,0,0c0,0,0,0,0,0s0,0,0,0c0,0,0,0,0,0c0,0,0,0,0,0c0,0,0,0,0,0c2.02,1.15,3.91-0.57,4.63-1.64
					c1.02-1.51,1.63-4.45-0.3-5.96c-0.28-0.16-0.68-0.39-1.31-0.39C383.69,162.93,383.52,162.95,383.33,162.98 M406.07,167.4
					c0.62,3.44,4.75,3.78,6.8,0.57c0.98-1.54,1.62-4.54-0.85-6.04l0,0c0,0,0,0,0,0c0,0,0,0,0,0c0,0,0,0,0,0c0,0,0,0,0,0c0,0,0,0,0,0
					c0,0,0,0,0,0c0,0,0,0,0,0c-0.51-0.23-1.01-0.33-1.49-0.33C407.77,161.58,405.62,164.9,406.07,167.4 M433.45,165.13
					c1,3.45,5.28,3.42,6.94-0.05c0.82-1.71,0.88-4.67-1.55-5.89c0,0,0,0,0,0c0,0,0,0,0,0c0,0,0,0,0,0l0,0c0,0,0,0,0,0c0,0,0,0,0,0
					l0,0h0c-0.41-0.14-0.82-0.21-1.21-0.21C434.82,158.98,432.65,162.36,433.45,165.13 M375.23,157.07
					c-2.89,0.17-5.51,5.22-3.03,7.43c0,0,0,0,0,0s0,0,0,0l0,0l0,0l0,0c0,0,0,0,0,0l0,0c0,0,0,0,0,0c1.72,1.1,3.5-0.53,4.2-1.55
					c0.98-1.42,1.68-4.07,0.15-5.49c0,0,0,0,0,0l0,0c0,0,0,0,0,0c0,0,0,0,0,0c0,0,0,0,0,0c0,0,0,0,0,0c0,0,0,0,0,0c0,0,0,0,0,0
					c-0.22-0.14-0.58-0.38-1.16-0.38C375.32,157.07,375.28,157.07,375.23,157.07 M396.19,161.62c0.35,3.24,4.17,3.63,6.28,0.65
					c1.05-1.49,1.66-4.34-0.37-5.74c0,0,0,0,0,0c0,0,0,0,0,0c0,0,0,0,0,0c0,0,0,0,0,0s0,0,0,0c0,0,0,0,0,0l0,0c0,0,0,0,0,0
					c-0.46-0.23-0.93-0.33-1.39-0.33C398.23,156.2,395.91,159.05,396.19,161.62 M422.97,160.21c0.67,3,4.69,3.59,6.64,0.16
					c0.85-1.49,1.32-4.33-1.02-5.63h0c0,0,0,0,0,0c0,0,0,0,0,0c0,0,0,0,0,0c0,0,0,0,0,0c0,0,0,0,0,0c0,0,0,0,0,0l0,0
					c-0.44-0.18-0.89-0.26-1.32-0.26C424.61,154.47,422.38,157.56,422.97,160.21 M364.4,156.97c0.33,2.19,2.6,2.13,4.25-0.11
					c0.92-1.24,1.89-3.73,0.59-5.11c-0.06-0.04-0.13-0.11-0.19-0.14c-0.25-0.16-0.52-0.24-0.81-0.24
					C366.39,151.37,364.03,154.49,364.4,156.97 M391.41,150.84c-3.05,0.46-5.49,5.17-2.9,7.16l0,0l0,0c0,0,0,0,0,0c0,0,0,0,0,0v0
					c0,0,0,0,0,0l0,0c0,0,0,0,0,0c2.34,1.32,4.34-1.22,4.56-1.52c1.02-1.36,1.89-3.88,0.11-5.29c0,0,0,0,0,0c0,0,0,0,0,0
					c0,0,0,0-0.01,0s0,0,0,0c0,0,0,0,0,0c0,0,0,0,0,0l0,0c0,0,0,0,0,0c-0.28-0.16-0.67-0.39-1.3-0.39
					C391.72,150.81,391.57,150.82,391.41,150.84 M416.76,149.92c-3.22,0.95-5.02,5.49-2.11,7.34c0,0,0,0,0,0c0,0,0,0,0,0
					c0,0,0,0,0,0c0,0,0,0,0,0c0,0,0,0,0,0c0,0,0,0,0,0c0,0,0,0,0,0h0c2.19,0.98,4.12-0.71,4.84-1.74c1.04-1.49,1.58-4.17-0.46-5.46
					h0l0,0c0,0,0,0,0,0c0,0,0,0,0,0c0,0,0,0,0,0l0,0l0,0l0,0c-0.24-0.11-0.67-0.3-1.28-0.3
					C417.47,149.76,417.14,149.81,416.76,149.92 M359.11,151.89C359.11,151.89,359.11,151.89,359.11,151.89
					C359.11,151.89,359.11,151.89,359.11,151.89C359.11,151.9,359.11,151.9,359.11,151.89C359.11,151.9,359.12,151.9,359.11,151.89
					c0.01,0.01,0.01,0.01,0.01,0.01c0,0,0,0,0,0l0,0c0,0,0,0,0,0c1.19,1.14,2.84-0.9,3.03-1.14c0.93-1.19,1.99-3.43,1.08-4.72l0,0
					c0,0,0,0,0,0l0,0c0,0,0,0,0,0l0,0c0,0,0,0,0,0c0,0,0,0,0,0s0,0,0,0c-0.16-0.15-0.31-0.3-0.63-0.34
					c-0.05-0.01-0.1-0.01-0.16-0.01C360.55,145.68,357.76,149.97,359.11,151.89 M383.78,145.3c-2.72,0.08-5.64,4.6-3.48,6.58
					c0,0,0,0,0,0c0,0,0,0,0,0c0,0,0,0,0,0c0,0,0,0,0,0c0,0,0,0,0,0c0,0,0,0,0,0c0,0,0,0,0,0c0,0,0,0,0,0
					c1.89,1.24,3.86-0.97,4.08-1.23c1.54-1.81,1.82-4.05,0.61-5c-0.21-0.14-0.57-0.37-1.17-0.37
					C383.83,145.3,383.81,145.3,383.78,145.3 M430.24,149.31c0.15,2.21,3.05,2.76,4.9,0.3c0.56-0.74,1.05-1.94,0.81-2.95
					c-0.3-0.42-0.61-0.82-0.93-1.23c-0.34-0.15-0.69-0.22-1.03-0.22C431.99,145.21,430.12,147.56,430.24,149.31 M404.08,149.68
					c0.1,2.68,3.51,3.47,5.76,0.59c1.04-1.33,1.91-3.79,0.04-5.09c-0.44-0.22-0.89-0.32-1.34-0.32
					C406.2,144.85,403.99,147.57,404.08,149.68 M354.88,145.64c0.17,1.05,1.32,0.94,2.7-0.9c1.17-1.56,1.73-3.29,1.3-4.02
					c-0.05-0.06-0.12-0.15-0.18-0.19c-0.1-0.07-0.21-0.1-0.34-0.1C357.05,140.43,354.6,143.89,354.88,145.64 M373,144.65
					c0,2.14,2.36,2.22,4.23,0.15c1.02-1.13,2.02-3.35,0.95-4.52c-0.28-0.25-0.62-0.36-1-0.36
					C375.44,139.92,373.01,142.37,373,144.65 M395.94,144.62c0.12,2.65,3.38,2.48,5.28,0.32c1.07-1.21,1.95-3.56,0.46-4.73
					c-0.37-0.24-0.8-0.35-1.24-0.35C398.36,139.87,395.83,142.24,395.94,144.62 M420.95,143.35c0.17,2.51,3.47,3.13,5.57,0.34
					c0.63-0.84,1.2-2.21,0.92-3.35c-0.34-0.47-0.69-0.93-1.05-1.4c-0.39-0.17-0.78-0.25-1.17-0.25
					C422.94,138.69,420.82,141.36,420.95,143.35 M352.76,140.6C352.76,140.6,352.76,140.6,352.76,140.6
					C352.76,140.6,352.76,140.6,352.76,140.6L352.76,140.6C352.76,140.6,352.76,140.6,352.76,140.6L352.76,140.6l0,0.01c0,0,0,0,0,0
					c0.36,0.73,1.75-1,1.9-1.2c0.74-0.95,1.78-2.66,1.61-3.5c0,0,0,0,0,0l0,0c0,0,0,0,0,0v0c0,0,0,0,0,0c0,0,0,0,0,0v0c0,0,0,0,0,0
					c-0.02-0.05-0.06-0.11-0.1-0.15c-0.03-0.02-0.07-0.03-0.11-0.03C355.27,135.72,352.46,139.14,352.76,140.6 M388.6,139.03
					c-0.19,2.3,2.49,2.6,4.62,0.52c1.16-1.13,2.22-3.26,0.96-4.42c-0.34-0.22-0.72-0.31-1.12-0.31
					C391.14,134.81,388.76,137.05,388.6,139.03 M367.68,138.98c-0.14,1.92,1.79,1.67,3.39,0.09c1.38-1.37,2.07-3.41,1.4-4.19
					c-0.21-0.2-0.48-0.29-0.78-0.29C370.17,134.59,367.83,136.92,367.68,138.98 M352.19,136.15L352.19,136.15L352.19,136.15
					L352.19,136.15L352.19,136.15L352.19,136.15c0.13,0.31,0.72-0.34,0.79-0.42c0.32-0.35,0.78-1.01,0.74-1.35v0v0v0c0,0,0,0,0,0
					c0,0,0,0,0,0v0v0c-0.01-0.02-0.02-0.05-0.04-0.06c-0.01-0.01-0.03-0.02-0.05-0.02C353.3,134.3,352.12,135.57,352.19,136.15
					 M412.65,138.64c0.06,2.43,3.05,2.66,5.17,0.4c1.49-1.6,1.7-3.76,0.44-4.54c-0.34-0.17-0.71-0.25-1.1-0.25
					C415.08,134.26,412.6,136.44,412.65,138.64 M382.53,133.89c-0.16,1.74,1.94,2.15,4.04,0.2c1.05-0.98,2.25-2.82,1.25-3.89
					c-0.28-0.23-0.62-0.33-0.99-0.33C385.1,129.87,382.69,132.1,382.53,133.89 M409.47,129.87c-2.71,0.32-5.48,3.9-3.52,5.44
					c0,0,0,0,0,0l0,0c0,0,0,0,0,0c0,0,0,0,0,0l0,0c0,0,0,0,0,0c0,0,0,0,0,0s0,0,0,0c1.46,0.82,3.26-0.3,4.09-1.1
					c1.37-1.31,2.03-3.26,0.84-4.08c-0.21-0.12-0.51-0.29-1.05-0.29C409.72,129.85,409.6,129.85,409.47,129.87 M402.9,125.32
					c-2.23,0.21-5.49,3.31-3.78,4.86c0,0,0,0,0,0c0,0,0,0,0,0l0,0l0,0l0,0l0,0c0,0,0,0,0,0c0,0,0,0,0,0
					c1.52,0.98,3.59-0.74,3.83-0.93c1.57-1.34,2.1-2.94,1.21-3.65c-0.19-0.12-0.46-0.3-1-0.3
					C403.08,125.31,402.99,125.31,402.9,125.32 M378.36,128.02c-0.12,1.34,1.49,1.65,3.1,0.16c0.8-0.75,1.72-2.16,0.96-2.98
					c-0.21-0.17-0.47-0.25-0.76-0.25C380.34,124.94,378.49,126.65,378.36,128.02 M409.78,121.43c-0.2-0.17-0.4-0.34-0.6-0.5
					C409.27,121.18,409.48,121.35,409.78,121.43 M393.14,124.35c-0.17,1.45,1.82,1.53,3.74,0.15c1.56-1.13,2.32-2.69,1.63-3.36
					c-0.25-0.18-0.57-0.27-0.93-0.27C395.89,120.88,393.34,122.67,393.14,124.35 M377.32,120.59c-0.6,0.35-0.93,0.89-0.74,1.21
					c0.19,0.32,0.82,0.31,1.42-0.04c0.6-0.35,0.93-0.89,0.74-1.21c-0.09-0.16-0.28-0.23-0.53-0.23
					C377.95,120.32,377.63,120.41,377.32,120.59 M375.61,117.12c-0.25,0.14-0.39,0.37-0.31,0.5c0.08,0.13,0.34,0.13,0.59-0.02
					c0.25-0.14,0.39-0.37,0.31-0.5c-0.04-0.06-0.12-0.1-0.22-0.1C375.88,117.01,375.74,117.04,375.61,117.12 M388.82,120.21
					L388.82,120.21L388.82,120.21L388.82,120.21L388.82,120.21L388.82,120.21L388.82,120.21L388.82,120.21
					c0.7,0.64,2.29-0.09,3.02-0.57c1.13-0.72,2.42-2.14,1.91-2.92c-0.11-0.1-0.21-0.19-0.51-0.23c-0.08-0.01-0.16-0.02-0.25-0.02
					C391.15,116.47,387.96,118.91,388.82,120.21 M385.59,115.33c-0.03,0.73,1.34,0.48,2.61-0.26c0.26-0.15,0.54-0.34,0.8-0.55
					C387.9,114.71,386.76,114.97,385.59,115.33"/>
			</defs>
			<clipPath id="SVGID_00000046307030996538840810000014098658334148085666_">
				<use xlink:href="#SVGID_00000008857111656115955510000016925534204107733888_"  style="overflow:visible;"/>
			</clipPath>
			
				<linearGradient id="SVGID_00000026129515807028450800000009229205903968949943_" gradientUnits="userSpaceOnUse" x1="-4.156206e-04" y1="-3.4014" x2="1" y2="-3.4014" gradientTransform="matrix(175.0488 0 0 -175.0488 352.1907 -395.9827)">
				<stop  offset="0" style="stop-color:#4062AD"/>
				<stop  offset="0.9987" style="stop-color:#0A925D"/>
				<stop  offset="1" style="stop-color:#0A925D"/>
			</linearGradient>
			
				<rect x="352.12" y="114.52" style="clip-path:url(#SVGID_00000046307030996538840810000014098658334148085666_);fill:url(#SVGID_00000026129515807028450800000009229205903968949943_);" width="175.12" height="169.81"/>
		</g>
		<g style="clip-path:url(#SVGID_00000165221274806785547940000017952960369062940091_);">
			<defs>
				<path id="SVGID_00000133489292561997691960000017524306358640804774_" d="M272.39,418.54h5.94v-6.05h-5.94V418.54z
					 M282.6,418.54h5.94v-6.05h-5.94V418.54z M299.67,387.7c1.94,0,3.78,0.11,5.45,0.49c5.45,1.19,8.21,5.29,8.21,12.37h-19.55v6.16
					h25.65v-6.16c-0.05-9.23-3.67-15.07-10.91-17.5c-1.4-0.49-2.48-0.7-3.24-0.76c-0.76-0.05-2.65-0.11-5.62-0.11V387.7z
					 M518.74,394.08c0-4.21,2.27-6.91,5.78-6.91c3.56,0,6.05,3.02,6.05,7.13c0,3.89-2.1,6.86-5.78,6.86
					C521.17,401.15,518.74,398.02,518.74,394.08 M512.48,394.13c0,2.3,0.58,4.39,1.49,6.43h-8.56c-7.29,0-10.48-2.65-10.48-9.13
					v-8.15h-5.99v8.15c0,9.99,5.51,15.28,16.58,15.28h19.17c7.24,0,12.1-5.29,12.1-12.42c0-7.07-4.91-12.64-12.1-12.64
					S512.48,386.9,512.48,394.13 M246.1,390.03c0-5.02,2.59-8.37,6.8-8.37h5.46v7.83c0,4.59-2.38,8.26-6.32,8.26
					C248.42,397.75,246.1,394.18,246.1,390.03 M251.28,376.96c-6.91,0-11.18,5.02-11.18,13.12c0,7.51,4.27,12.69,11.18,12.69
					c2.7,0,5.02-1.35,6.91-4.05c1.24,4.81,5.08,7.99,9.77,7.99h5.34h1.19h5.18c5.99,0,9.02-3.24,9.02-9.77V382.2h-6.05v12.69
					c0,1.94-0.16,3.24-0.43,3.89c-0.59,1.19-1.84,1.78-3.83,1.78h-3.89h-1.19h-2.64c-4.05,0-6.05-2.27-6.05-6.48v-17.12H251.28z
					 M330.66,393.81c0-3.62,2.27-6.1,5.83-6.1c3.13,0,4.97,2.27,5.29,5.46v7.4h-5.35C333.2,400.56,330.66,397.53,330.66,393.81
					 M366.36,388.89c2.75-1.46,5.56-2.21,8.32-2.21s5.4,0.7,7.83,2.16c-0.76,1.13-1.78,2.32-3.02,3.56c-1.4,1.35-2.7,2.38-3.94,2.97
					C372.84,392.24,369.76,390.08,366.36,388.89 M454.92,371.88v23c0,1.94-0.16,3.24-0.43,3.89c-0.59,1.19-1.84,1.78-3.83,1.78
					h-3.29h-1.84h-7.4c0.92-1.94,1.35-4.16,1.35-6.7V382.2h-6.1v12.42c0,3.94-1.51,5.94-4.59,5.94h-5.89
					c0.81-0.86,1.24-3.08,1.24-6.59V382.2h-6.1v12.37c0,4-1.51,5.99-4.59,5.99h-5.62v-0.32c0.65-1.03,0.97-3.08,0.97-6.26V382.2
					h-6.1v11.99c0,4.27-1.51,6.37-4.59,6.37h-3.56h-1.95h-8.21c-1.3,0-2.11-0.05-2.38-0.11c-0.7-0.16-1.4-0.59-2.16-1.35
					c1.94-1.35,4-3.35,6.21-6.05c2.05-2.54,3.35-4.54,3.84-5.99c-4.32-3.73-9.45-5.62-15.39-5.62c-5.02,0-9.94,1.46-14.63,4.43v5.73
					c2,0.49,4.16,1.46,6.37,2.92c2.21,1.4,3.78,2.75,4.59,4c-1.3,0.86-2.59,1.4-3.89,1.67c-1.03,0.27-2.43,0.38-4.21,0.38h-7.51
					h-1.46h-5.94v-6.26c0-7.07-4.64-12.15-11.23-12.15c-6.86,0-12.1,4.86-12.1,11.99c0,7.13,5.29,12.58,11.83,12.58h5.78
					c-0.86,2.86-2.86,4.16-5.99,4.16v4.75c7.02,0,10.96-2.97,11.77-8.91h5.88h1.46h7.61c4.05,0,7.99-1.3,11.93-3.89
					c0.92,1.03,2.05,1.89,3.46,2.59c1.68,0.86,3.3,1.3,4.81,1.3h9.56h1.95h50.98h1.84h4.54c6.05,0,9.07-3.24,9.07-9.77v-25.06
					H454.92z M574.15,388.89c2.75-1.46,5.56-2.21,8.32-2.21c2.75,0,5.4,0.7,7.83,2.16c-0.76,1.13-1.78,2.32-3.02,3.56
					c-1.4,1.35-2.7,2.38-3.94,2.97C580.63,392.24,577.55,390.08,574.15,388.89 M633.28,371.88v23c0,1.94-0.16,3.24-0.43,3.89
					c-0.59,1.19-1.84,1.78-3.83,1.78h-3.57h-1.57h-8.59c0.86-1.03,1.3-3.08,1.3-6.26v-22.41h-5.99v22.73c0,1.89-0.22,3.3-0.65,4.11
					c-0.65,1.24-1.84,1.84-3.62,1.84h-4.16h-1.46h-8.53c-1.3,0-2.11-0.05-2.38-0.11c-0.7-0.16-1.41-0.59-2.16-1.35
					c1.95-1.35,4-3.35,6.21-6.05c2.05-2.54,3.35-4.54,3.84-5.99c-4.32-3.73-9.45-5.62-15.39-5.62c-5.02,0-9.94,1.46-14.63,4.43v5.73
					c2,0.49,4.16,1.46,6.37,2.92c2.21,1.4,3.78,2.75,4.59,4c-1.3,0.86-2.59,1.4-3.89,1.67c-1.03,0.27-2.43,0.38-4.21,0.38h-6.86
					h-2.11h-7.18V382.2h-6.05v20.63c0,5.18-2.48,7.67-7.51,7.67v5.18c7.34,0,12.26-3.19,13.18-8.96h7.56h2.11h6.97
					c4.05,0,7.99-1.3,11.93-3.89c0.92,1.03,2.05,1.89,3.46,2.59c1.67,0.86,3.29,1.3,4.81,1.3h9.88h1.46h21.71h1.57h4.81
					c6.05,0,9.07-3.24,9.07-9.77v-25.06H633.28z M466.53,406.71h5.99v-34.89h-5.99V406.71z M521.77,377.23h5.94v-5.99h-5.94V377.23z
					 M579.39,377.12h5.94v-5.99h-5.94V377.12z M247.99,372.59h5.94v-6.05h-5.94V372.59z M258.19,372.59h5.94v-6.05h-5.94V372.59z
					 M599.04,359.79h5.94v-6.05h-5.94V359.79z M537.16,359.74h5.89v-6.05h-5.89V359.74z M326.5,324.91
					c-2.21,0.97-4.1,2.27-5.78,3.83c1.35,2.05,2.32,3.62,2.92,4.75c1.3-1.46,2.92-2.59,4.86-3.4c1.67-0.7,3.19-1.03,4.54-1.03
					c3.94,0,7.07,1.35,9.29,4.11c1.89,2.38,2.81,5.24,2.81,8.59h-29.92h-1.57h-7.83h-2.54h-6.86c-0.05-9.23-3.67-15.07-10.91-17.5
					c-1.4-0.49-2.48-0.7-3.24-0.76c-0.76-0.05-2.65-0.11-5.62-0.11v5.51c1.94,0,3.78,0.11,5.45,0.48c5.45,1.19,8.21,5.29,8.21,12.37
					h-19.55v6.16h32.51h2.54h7.83h1.57h36.45v-3.78c0-8.48-2.54-14.36-7.67-17.77c-2.92-2-6.37-2.97-10.37-2.97
					C331.26,323.4,328.88,323.88,326.5,324.91 M246.75,334.58c0-4.37,2.38-7.67,6.37-7.67c4.1,0,6.75,3.4,6.75,7.94
					c0,4.37-2.48,7.61-6.37,7.61S246.75,339.06,246.75,334.58 M240.48,334.63c0,7.56,5.29,13.28,12.85,13.28
					c7.67,0,12.74-5.67,12.74-13.07c0-7.78-5.35-13.34-12.74-13.34S240.48,326.91,240.48,334.63 M479.59,331.23
					c0-5.02,2.59-8.37,6.8-8.37h5.45v7.83c0,4.59-2.38,8.26-6.32,8.26C481.92,338.95,479.59,335.39,479.59,331.23 M484.78,318.16
					c-6.91,0-11.18,5.02-11.18,13.12c0,7.51,4.27,12.69,11.18,12.69c2.7,0,5.02-1.35,6.91-4.05c1.24,4.8,5.08,7.99,9.77,7.99h5.02
					H508h9.18h1.24h9.83h0.86h4.97c5.99,0,9.02-3.24,9.02-9.77V323.4h-5.99v12.69c0,1.94-0.16,3.24-0.43,3.89
					c-0.59,1.19-1.84,1.78-3.83,1.78h-3.73h-0.86h-9.83h-1.24H508h-1.51h-2.32c-4.05,0-6.05-2.27-6.05-6.48v-17.12H484.78z
					 M408.64,339.92c0-1.89,0.48-3.51,1.4-4.75c1.08-1.46,2.54-2.16,4.37-2.16c1.89,0,3.46,0.76,4.59,2.21
					c0.97,1.35,1.46,3.02,1.46,4.91c0,1.94-0.49,3.56-1.4,4.81c-1.03,1.35-2.49,2.05-4.32,2.05
					C411.02,347,408.64,343.81,408.64,339.92 M362.9,335.01c0-3.62,2.27-6.1,5.83-6.1c3.13,0,4.97,2.27,5.29,5.45v7.4h-5.35
					C365.44,341.76,362.9,338.73,362.9,335.01 M439.58,313.08v23c0,1.94-0.16,3.24-0.43,3.89c-0.59,1.19-1.84,1.78-3.83,1.78h-3.24
					h-1.89h-3.51v-1.57c0-3.62-1.13-6.59-3.35-9.02c-2.21-2.43-5.13-3.62-8.75-3.62s-6.53,1.19-8.8,3.51
					c-2.21,2.32-3.35,5.29-3.35,8.91c0,0.6,0,1.19,0.05,1.78h-4.43h-1.4h-9.18h-1.35h-6.05v-6.26c0-7.07-4.64-12.15-11.23-12.15
					c-6.86,0-12.1,4.86-12.1,11.99c0,7.13,5.29,12.58,11.83,12.58h5.78c-0.86,2.86-2.86,4.16-5.99,4.16v4.75
					c7.02,0,10.96-2.97,11.77-8.91h5.99h1.35h9.18h1.4h6.86c2.32,3.13,5.51,4.7,9.67,4.7c4.21,0,7.45-1.57,9.77-4.7h5.83h1.89h4.48
					c6.05,0,9.07-3.24,9.07-9.77v-25.06H439.58z M565.99,335.01c0-3.62,2.27-6.1,5.83-6.1c3.13,0,4.97,2.27,5.29,5.45v7.4h-5.34
					C568.53,341.76,565.99,338.73,565.99,335.01 M621.72,313.08v23c0,1.94-0.16,3.24-0.43,3.89c-0.59,1.19-1.84,1.78-3.83,1.78
					h-3.35h-1.78h-8.59c0.86-1.03,1.3-3.08,1.3-6.26v-12.1h-5.99v12.42c0,1.89-0.22,3.29-0.65,4.1c-0.65,1.24-1.84,1.84-3.62,1.84
					h-4.21h-1.41h-5.99v-6.26c0-7.07-4.64-12.15-11.23-12.15c-6.86,0-12.1,4.86-12.1,11.99c0,7.13,5.29,12.58,11.83,12.58h5.78
					c-0.86,2.86-2.86,4.16-5.99,4.16v4.75c7.02,0,10.96-2.97,11.77-8.91h5.94h1.41h21.76h1.78h4.59c6.05,0,9.07-3.24,9.07-9.77
					v-25.06H621.72z M451.19,347.91h5.99v-34.89h-5.99V347.91z M548.77,347.91h5.99v-34.89h-5.99V347.91z M633.33,347.91h5.99
					v-34.89h-5.99V347.91z M245.13,316.54h5.94v-5.99h-5.94V316.54z M255.39,316.54h5.94v-5.99h-5.94V316.54z M481.48,313.79h5.94
					v-6.05h-5.94V313.79z M491.69,313.79h5.94v-6.05h-5.94V313.79z"/>
			</defs>
			<clipPath id="SVGID_00000059999525919276954850000006877207095350877857_">
				<use xlink:href="#SVGID_00000133489292561997691960000017524306358640804774_"  style="overflow:visible;"/>
			</clipPath>
			
				<linearGradient id="SVGID_00000067934945624852786250000009847972495959612576_" gradientUnits="userSpaceOnUse" x1="-9.173082e-07" y1="-1.4911" x2="1" y2="-1.4911" gradientTransform="matrix(399.2236 0 0 -399.2236 240.1033 -232.1377)">
				<stop  offset="0" style="stop-color:#4062AD"/>
				<stop  offset="0.9987" style="stop-color:#0A925D"/>
				<stop  offset="1" style="stop-color:#0A925D"/>
			</linearGradient>
			
				<rect x="240.1" y="307.74" style="clip-path:url(#SVGID_00000059999525919276954850000006877207095350877857_);fill:url(#SVGID_00000067934945624852786250000009847972495959612576_);" width="399.22" height="110.8"/>
		</g>
	</g>
</g>
</svg>
